<?xml version="1.0" encoding="UTF-8" standalone="no"?>
<!-- Creator: CorelDRAW X6 -->

<svg
   xmlns:dc="http://purl.org/dc/elements/1.1/"
   xmlns:cc="http://creativecommons.org/ns#"
   xmlns:rdf="http://www.w3.org/1999/02/22-rdf-syntax-ns#"
   xmlns:svg="http://www.w3.org/2000/svg"
   xmlns="http://www.w3.org/2000/svg"
   xmlns:sodipodi="http://sodipodi.sourceforge.net/DTD/sodipodi-0.dtd"
   xmlns:inkscape="http://www.inkscape.org/namespaces/inkscape"
   xml:space="preserve"
   width="1614.15"
   height="1614.15"
   version="1.1"
   shape-rendering="geometricPrecision"
   text-rendering="geometricPrecision"
   image-rendering="optimizeQuality"
   clip-rule="evenodd"
   viewBox="0 0 45554.904 45554.899"
   id="svg2"
   inkscape:version="0.48.4 r9939"
   sodipodi:docname="icon.svg"
   style="fill-rule:evenodd"
   inkscape:export-filename="/home/jumplink/Projekte/git/gmail-send-mail/app/browser/images/icon.png"
   inkscape:export-xdpi="14.273767"
   inkscape:export-ydpi="14.273767"><metadata
     id="metadata82"><rdf:RDF><cc:Work
         rdf:about=""><dc:format>image/svg+xml</dc:format><dc:type
           rdf:resource="http://purl.org/dc/dcmitype/StillImage" /><dc:title></dc:title></cc:Work></rdf:RDF></metadata><sodipodi:namedview
     pagecolor="#ffffff"
     bordercolor="#666666"
     borderopacity="1"
     objecttolerance="10"
     gridtolerance="10"
     guidetolerance="10"
     inkscape:pageopacity="0"
     inkscape:pageshadow="2"
     inkscape:window-width="1301"
     inkscape:window-height="744"
     id="namedview80"
     showgrid="false"
     inkscape:zoom="0.19638777"
     inkscape:cx="165.48892"
     inkscape:cy="586.3642"
     inkscape:window-x="65"
     inkscape:window-y="24"
     inkscape:window-maximized="1"
     inkscape:current-layer="svg2" /><defs
     id="defs4"><linearGradient
       id="id0"
       gradientUnits="userSpaceOnUse"
       x1="10721.3"
       y1="7208.8501"
       x2="34827.801"
       y2="7208.8501"><stop
         offset="0"
         stop-color="#F8F6EF"
         id="stop7" /><stop
         offset="1"
         stop-color="#E7E4D6"
         id="stop9" /></linearGradient><linearGradient
       id="id1"
       gradientUnits="userSpaceOnUse"
       x1="10721.3"
       y1="7208.8501"
       x2="34827.801"
       y2="7208.8501"><stop
         offset="0"
         stop-color="#F8F6EF"
         id="stop12" /><stop
         offset="1"
         stop-color="#E7E4D6"
         id="stop14" /></linearGradient><linearGradient
       id="id2"
       gradientUnits="userSpaceOnUse"
       x1="10721.3"
       y1="7208.8501"
       x2="34827.801"
       y2="7208.8501"><stop
         offset="0"
         stop-color="#F8F6EF"
         id="stop17" /><stop
         offset="1"
         stop-color="#E7E4D6"
         id="stop19" /></linearGradient><linearGradient
       id="id3"
       gradientUnits="userSpaceOnUse"
       x1="10721.3"
       y1="7208.8501"
       x2="34827.801"
       y2="7208.8501"><stop
         offset="0"
         stop-color="#F8F6EF"
         id="stop22" /><stop
         offset="1"
         stop-color="#E7E4D6"
         id="stop24" /></linearGradient><linearGradient
       id="id4"
       gradientUnits="userSpaceOnUse"
       x1="10721.3"
       y1="7208.8501"
       x2="34827.801"
       y2="7208.8501"><stop
         offset="0"
         stop-color="#F8F6EF"
         id="stop27" /><stop
         offset="1"
         stop-color="#E7E4D6"
         id="stop29" /></linearGradient><linearGradient
       id="id5"
       gradientUnits="userSpaceOnUse"
       x1="10721.3"
       y1="7208.8501"
       x2="34827.801"
       y2="7208.8501"><stop
         offset="0"
         stop-color="#F8F6EF"
         id="stop32" /><stop
         offset="1"
         stop-color="#E7E4D6"
         id="stop34" /></linearGradient><linearGradient
       id="id6"
       gradientUnits="userSpaceOnUse"
       x1="10721.3"
       y1="7208.8501"
       x2="34827.801"
       y2="7208.8501"><stop
         offset="0"
         stop-color="#F8F6EF"
         id="stop37" /><stop
         offset="1"
         stop-color="#E7E4D6"
         id="stop39" /></linearGradient><linearGradient
       id="id7"
       gradientUnits="userSpaceOnUse"
       x1="10721.3"
       y1="7208.8501"
       x2="34827.801"
       y2="7208.8501"><stop
         offset="0"
         stop-color="#F8F6EF"
         id="stop42" /><stop
         offset="1"
         stop-color="#E7E4D6"
         id="stop44" /></linearGradient></defs><g
     id="Capa_x0020_1"
     transform="matrix(0.78838795,0,0,0.78838795,4819.9455,9730.8115)"><metadata
       id="CorelCorpID_0Corel-Layer" /><line
       x1="40172"
       y1="32847"
       x2="40182"
       y2="32847"
       id="line48"
       style="fill:none" /><line
       x1="40182"
       y1="32847"
       x2="40172"
       y2="32847"
       id="line50"
       style="fill:none" /><path
       d="m 41608,250 c 2030,0 3691,1661 3691,3691 l 0,1070 L 40171,8674 22713,20700 5255,8552 l 0,23074 0,1221 -1314,0 C 1911,32847 250,31186 250,29156 L 250,3942 C 250,1912 1911,251 3941,251 L 22713,14169 41607,251 z"
       id="path52"
       inkscape:connector-curvature="0"
       style="fill:#e75a4d" /><polygon
       points="3941,250 22713,14168 41608,250 "
       id="polygon54"
       style="fill:url(#id0)" /><polygon
       points="5255,8552 5255,32847 40172,32847 40172,8674 22713,20700 "
       id="polygon56"
       style="fill:#e7e4d7" /><polygon
       points="5255,32580 5255,32847 22713,20700 22634,20644 "
       id="polygon58"
       style="fill:#b8b7ae" /><polygon
       points="40172,8674 40182,32847 22713,20700 "
       id="polygon60"
       style="fill:#b7b6ad" /><path
       d="m 45299,5011 6,24148 c -88,2684 -1251,3642 -5123,3687 l -10,-24173 5128,-3663 z"
       id="path62"
       inkscape:connector-curvature="0"
       style="fill:#b2392f" /><polygon
       points="3941,250 22713,14168 41608,250 "
       id="polygon64"
       style="fill:url(#id1)" /><polygon
       points="3941,250 22713,14168 41608,250 "
       id="polygon66"
       style="fill:url(#id2)" /><polygon
       points="3941,250 22713,14168 41608,250 "
       id="polygon68"
       style="fill:url(#id3)" /><polygon
       points="3941,250 22713,14168 41608,250 "
       id="polygon70"
       style="fill:url(#id4)" /><polygon
       points="3941,250 22713,14168 41608,250 "
       id="polygon72"
       style="fill:url(#id5)" /><polygon
       points="3941,250 22713,14168 41608,250 "
       id="polygon74"
       style="fill:url(#id6)" /><polygon
       points="3941,250 22713,14168 41608,250 "
       id="polygon76"
       style="fill:url(#id7)" /><polygon
       points="3941,250 22713,14168 41608,250 "
       id="polygon78"
       style="fill:#f7f5ed" /></g></svg>